<?xml version="1.0" encoding="UTF-8" standalone="no"?>
<!DOCTYPE svg PUBLIC "-//W3C//DTD SVG 1.1//EN" "http://www.w3.org/Graphics/SVG/1.1/DTD/svg11.dtd">
<svg width="100%" height="100%" viewBox="0 0 512 512" version="1.1" xmlns="http://www.w3.org/2000/svg" xmlns:xlink="http://www.w3.org/1999/xlink" xml:space="preserve" xmlns:serif="http://www.serif.com/" style="fill-rule:evenodd;clip-rule:evenodd;stroke-linejoin:round;stroke-miterlimit:2;">
    <g transform="matrix(1,0,0,1,-1720,0)">
        <g id="beaming-face-with-smiling-eyes" transform="matrix(1,0,0,1,1720.86,0)">
            <rect x="0" y="0" width="512" height="512" style="fill:none;"/>
            <g transform="matrix(0.16518,0,0,0.16518,-156.951,-156.951)">
                <g transform="matrix(1.20924,0,0,1.16896,-37.5235,317.451)">
                    <circle cx="2098.45" cy="1867.09" r="819.926" style="fill:rgb(244,179,40);"/>
                </g>
                <g transform="matrix(0.926868,7.16489e-18,-7.16489e-18,-0.868362,688.155,6200.18)">
                    <path d="M2590.95,4048.47C2591.93,4061.36 2587.82,4074.11 2579.61,4083.62C2571.4,4093.12 2559.83,4098.53 2547.72,4098.53C2349.31,4098.62 1556.13,4098.62 1357.72,4098.62C1345.58,4098.62 1334,4093.2 1325.77,4083.68C1317.54,4074.15 1313.42,4061.38 1314.41,4048.47C1340.07,3718.36 1616.05,3458.46 1952.72,3458.46C2289.39,3458.46 2565.37,3718.36 2590.95,4048.47Z" style="fill:rgb(116,0,5);"/>
                    <clipPath id="_clip1">
                        <path d="M2590.95,4048.47C2591.93,4061.36 2587.82,4074.11 2579.61,4083.62C2571.4,4093.12 2559.83,4098.53 2547.72,4098.53C2349.31,4098.62 1556.13,4098.62 1357.72,4098.62C1345.58,4098.62 1334,4093.2 1325.77,4083.68C1317.54,4074.15 1313.42,4061.38 1314.41,4048.47C1340.07,3718.36 1616.05,3458.46 1952.72,3458.46C2289.39,3458.46 2565.37,3718.36 2590.95,4048.47Z"/>
                    </clipPath>
                    <g clip-path="url(#_clip1)">
                        <g transform="matrix(1.23602,1.38434e-17,5.85128e-17,5.70217,-5.38463,-7360.33)">
                            <path d="M2100.68,1881.87L2100.68,1937.78C2100.68,1941.93 2095.4,1945.92 2086.01,1948.86C2076.62,1951.8 2063.89,1953.45 2050.61,1953.45L1117.8,1953.45C1104.52,1953.45 1091.78,1951.8 1082.39,1948.86C1073.01,1945.92 1067.73,1941.93 1067.73,1937.78L1067.73,1881.87L2100.68,1881.87Z" style="fill:rgb(233,233,233);"/>
                            <clipPath id="_clip2">
                                <path d="M2100.68,1881.87L2100.68,1937.78C2100.68,1941.93 2095.4,1945.92 2086.01,1948.86C2076.62,1951.8 2063.89,1953.45 2050.61,1953.45L1117.8,1953.45C1104.52,1953.45 1091.78,1951.8 1082.39,1948.86C1073.01,1945.92 1067.73,1941.93 1067.73,1937.78L1067.73,1881.87L2100.68,1881.87Z"/>
                            </clipPath>
                            <g clip-path="url(#_clip2)">
                                <g transform="matrix(6.34586,-4.0564e-18,1.71205e-17,-1.46608,-10408.8,2362.93)">
                                    <rect x="1884.94" y="279.306" width="10.426" height="39.258" style="fill:rgb(206,206,206);"/>
                                </g>
                                <g transform="matrix(6.34586,-4.0564e-18,1.42777e-17,-1.22265,-10129.8,2294.94)">
                                    <rect x="1884.94" y="279.306" width="10.426" height="39.258" style="fill:rgb(206,206,206);"/>
                                </g>
                                <g transform="matrix(6.34586,-4.0564e-18,1.42777e-17,-1.22265,-10687.7,2294.94)">
                                    <rect x="1884.94" y="279.306" width="10.426" height="39.258" style="fill:rgb(206,206,206);"/>
                                </g>
                            </g>
                        </g>
                        <g transform="matrix(1.23602,1.01984e-17,-4.41448e-17,-5.71068,-5.38463,14980.4)">
                            <path d="M2100.68,1881.87C2100.68,1881.87 2100.68,1920.66 2100.68,1941.13C2100.68,1944.39 2095.99,1947.53 2087.64,1949.84C2079.28,1952.15 2067.96,1953.45 2056.15,1953.45L1112.26,1953.45C1100.45,1953.45 1089.12,1952.15 1080.77,1949.84C1072.42,1947.53 1067.73,1944.39 1067.73,1941.13L1067.73,1881.87L2100.68,1881.87Z" style="fill:rgb(233,233,233);"/>
                            <clipPath id="_clip3">
                                <path d="M2100.68,1881.87C2100.68,1881.87 2100.68,1920.66 2100.68,1941.13C2100.68,1944.39 2095.99,1947.53 2087.64,1949.84C2079.28,1952.15 2067.96,1953.45 2056.15,1953.45L1112.26,1953.45C1100.45,1953.45 1089.12,1952.15 1080.77,1949.84C1072.42,1947.53 1067.73,1944.39 1067.73,1941.13L1067.73,1881.87L2100.68,1881.87Z"/>
                            </clipPath>
                            <g clip-path="url(#_clip3)">
                                <g transform="matrix(6.34586,-3.10347e-31,-5.96395e-32,1.22082,-10687.7,1564.53)">
                                    <rect x="1884.94" y="279.306" width="10.426" height="39.258" style="fill:rgb(206,206,206);"/>
                                </g>
                                <g transform="matrix(6.34586,-3.10347e-31,-5.96395e-32,1.22082,-10408.8,1564.53)">
                                    <rect x="1884.94" y="279.306" width="10.426" height="39.258" style="fill:rgb(206,206,206);"/>
                                </g>
                                <g transform="matrix(6.34586,-3.10347e-31,-5.96395e-32,1.22082,-10129.8,1564.53)">
                                    <rect x="1884.94" y="279.306" width="10.426" height="39.258" style="fill:rgb(206,206,206);"/>
                                </g>
                            </g>
                        </g>
                    </g>
                </g>
                <g transform="matrix(1,0,0,1,1.515,-1.515)">
                    <path d="M2213.34,2405.17C2213.34,2434.6 2189.46,2458.49 2160.03,2458.49C2130.61,2458.49 2106.72,2434.6 2106.72,2405.17C2106.72,2382.95 2106.99,2352.85 2084.58,2333.21C2068.05,2318.74 2041.28,2311.59 2000.42,2311.59C1959.91,2311.59 1933.71,2318.07 1917.83,2332.18C1895.97,2351.58 1897.84,2381.76 1897.84,2405.17C1897.84,2434.6 1873.95,2458.49 1844.52,2458.49C1815.1,2458.49 1791.21,2434.6 1791.21,2405.17C1791.21,2354.88 1800.08,2294.13 1847.04,2252.44C1877.01,2225.84 1924.01,2204.97 2000.42,2204.97C2076.46,2204.97 2124.09,2226.07 2154.84,2253.01C2203.37,2295.53 2213.34,2357.06 2213.34,2405.17Z" style="fill:rgb(34,34,34);"/>
                </g>
                <g transform="matrix(1,0,0,1,993.929,-1.515)">
                    <path d="M2213.34,2405.17C2213.34,2434.6 2189.46,2458.49 2160.03,2458.49C2130.61,2458.49 2106.72,2434.6 2106.72,2405.17C2106.72,2382.95 2106.99,2352.85 2084.58,2333.21C2068.05,2318.74 2041.28,2311.59 2000.42,2311.59C1959.91,2311.59 1933.71,2318.07 1917.83,2332.18C1895.97,2351.58 1897.84,2381.76 1897.84,2405.17C1897.84,2434.6 1873.95,2458.49 1844.52,2458.49C1815.1,2458.49 1791.21,2434.6 1791.21,2405.17C1791.21,2354.88 1800.08,2294.13 1847.04,2252.44C1877.01,2225.84 1924.01,2204.97 2000.42,2204.97C2076.46,2204.97 2124.09,2226.07 2154.84,2253.01C2203.37,2295.53 2213.34,2357.06 2213.34,2405.17Z" style="fill:rgb(34,34,34);"/>
                </g>
            </g>
        </g>
    </g>
</svg>
