<?xml version="1.0" encoding="UTF-8" standalone="no"?>
<!DOCTYPE svg PUBLIC "-//W3C//DTD SVG 1.1//EN" "http://www.w3.org/Graphics/SVG/1.1/DTD/svg11.dtd">
<svg width="100%" height="100%" viewBox="0 0 512 512" version="1.1" xmlns="http://www.w3.org/2000/svg" xmlns:xlink="http://www.w3.org/1999/xlink" xml:space="preserve" xmlns:serif="http://www.serif.com/" style="fill-rule:evenodd;clip-rule:evenodd;stroke-linejoin:round;stroke-miterlimit:2;">
    <g transform="matrix(1,0,0,1,-4142,0)">
        <g id="face-with-tears-of-joy" transform="matrix(1,0,0,1,4142.11,0)">
            <rect x="0" y="0" width="512" height="512" style="fill:none;"/>
            <g transform="matrix(0.164278,0,0,0.164278,-154.695,-154.695)">
                <g transform="matrix(1.20924,0,0,1.16896,-37.5235,317.451)">
                    <circle cx="2098.45" cy="1867.09" r="819.926" style="fill:rgb(244,179,40);"/>
                </g>
                <g transform="matrix(0.7717,5.96541e-18,-5.96541e-18,-0.722989,993.079,5501.34)">
                    <path d="M2589.98,4037.23C2591.48,4052.88 2586.7,4068.48 2576.83,4080.16C2566.95,4091.85 2552.9,4098.51 2538.16,4098.51C2328.41,4098.62 1577.03,4098.62 1367.28,4098.62C1352.51,4098.62 1338.43,4091.94 1328.54,4080.24C1318.64,4068.53 1313.85,4052.9 1315.36,4037.22C1346.36,3712.48 1619.88,3458.46 1952.72,3458.46C2285.56,3458.46 2559.08,3712.48 2589.98,4037.23Z" style="fill:rgb(116,0,5);"/>
                    <clipPath id="_clip1">
                        <path d="M2589.98,4037.23C2591.48,4052.88 2586.7,4068.48 2576.83,4080.16C2566.95,4091.85 2552.9,4098.51 2538.16,4098.51C2328.41,4098.62 1577.03,4098.62 1367.28,4098.62C1352.51,4098.62 1338.43,4091.94 1328.54,4080.24C1318.64,4068.53 1313.85,4052.9 1315.36,4037.22C1346.36,3712.48 1619.88,3458.46 1952.72,3458.46C2285.56,3458.46 2559.08,3712.48 2589.98,4037.23Z"/>
                    </clipPath>
                    <g clip-path="url(#_clip1)">
                        <g transform="matrix(-1.57467,1.92842e-16,1.4103e-16,1.15159,5805.63,-173.208)">
                            <path d="M2445.95,2804C2445.95,2804 2591.98,3062.68 2700.43,3254.78C2721.42,3291.97 2725.83,3343.5 2711.74,3387.08C2697.66,3430.66 2667.6,3458.46 2634.59,3458.46C2519.88,3458.46 2372.02,3458.46 2257.32,3458.46C2224.3,3458.46 2194.25,3430.66 2180.16,3387.08C2166.08,3343.5 2170.48,3291.97 2191.48,3254.78C2299.92,3062.68 2445.95,2804 2445.95,2804Z" style="fill:rgb(223,4,10);"/>
                        </g>
                        <g transform="matrix(1.16201,9.58775e-18,-8.90207e-18,-1.15159,111.866,6265.78)">
                            <path d="M2100.68,1881.87L2100.68,1897.92C2100.68,1912.65 2095.24,1926.77 2085.58,1937.18C2075.91,1947.6 2062.8,1953.45 2049.12,1953.45L1119.29,1953.45C1105.61,1953.45 1092.5,1947.6 1082.83,1937.18C1073.16,1926.77 1067.73,1912.65 1067.73,1897.92L1067.73,1881.87L2100.68,1881.87Z" style="fill:white;"/>
                        </g>
                    </g>
                </g>
                <g transform="matrix(1,0,0,1,-8451.09,-13448.4)">
                    <g>
                        <g transform="matrix(0.462365,-0.462365,0.462365,0.462365,10350.4,15623.2)">
                            <path d="M1097.37,1735.65C1107.71,1711.58 1131.38,1695.98 1157.58,1695.98C1183.77,1695.98 1207.44,1711.58 1217.78,1735.65C1284.33,1890.83 1382.25,2141.83 1382.25,2275.32C1382.25,2399.33 1281.58,2500 1157.58,2500C1033.57,2500 932.898,2399.33 932.898,2275.32C932.898,2141.83 1030.82,1890.83 1097.37,1735.65Z" style="fill:rgb(69,132,255);"/>
                        </g>
                        <g transform="matrix(-0.462365,-0.462365,-0.462365,0.462365,11551.8,15623.2)">
                            <path d="M1097.37,1735.65C1107.71,1711.58 1131.38,1695.98 1157.58,1695.98C1183.77,1695.98 1207.44,1711.58 1217.78,1735.65C1284.33,1890.83 1382.25,2141.83 1382.25,2275.32C1382.25,2399.33 1281.58,2500 1157.58,2500C1033.57,2500 932.898,2399.33 932.898,2275.32C932.898,2141.83 1030.82,1890.83 1097.37,1735.65Z" style="fill:rgb(69,132,255);"/>
                        </g>
                    </g>
                </g>
                <g transform="matrix(1,0,0,1,1.515,-68.6877)">
                    <path d="M2213.34,2405.17C2213.34,2434.6 2189.46,2458.49 2160.03,2458.49C2130.61,2458.49 2106.72,2434.6 2106.72,2405.17C2106.72,2382.95 2106.99,2352.85 2084.58,2333.21C2068.05,2318.74 2041.28,2311.59 2000.42,2311.59C1959.91,2311.59 1933.71,2318.07 1917.83,2332.18C1895.97,2351.58 1897.84,2381.76 1897.84,2405.17C1897.84,2434.6 1873.95,2458.49 1844.52,2458.49C1815.1,2458.49 1791.21,2434.6 1791.21,2405.17C1791.21,2354.88 1800.08,2294.13 1847.04,2252.44C1877.01,2225.84 1924.01,2204.97 2000.42,2204.97C2076.46,2204.97 2124.09,2226.07 2154.84,2253.01C2203.37,2295.53 2213.34,2357.06 2213.34,2405.17Z" style="fill:rgb(34,34,34);"/>
                </g>
                <g transform="matrix(1,0,0,1,993.929,-68.6877)">
                    <path d="M2213.34,2405.17C2213.34,2434.6 2189.46,2458.49 2160.03,2458.49C2130.61,2458.49 2106.72,2434.6 2106.72,2405.17C2106.72,2382.95 2106.99,2352.85 2084.58,2333.21C2068.05,2318.74 2041.28,2311.59 2000.42,2311.59C1959.91,2311.59 1933.71,2318.07 1917.83,2332.18C1895.97,2351.58 1897.84,2381.76 1897.84,2405.17C1897.84,2434.6 1873.95,2458.49 1844.52,2458.49C1815.1,2458.49 1791.21,2434.6 1791.21,2405.17C1791.21,2354.88 1800.08,2294.13 1847.04,2252.44C1877.01,2225.84 1924.01,2204.97 2000.42,2204.97C2076.46,2204.97 2124.09,2226.07 2154.84,2253.01C2203.37,2295.53 2213.34,2357.06 2213.34,2405.17Z" style="fill:rgb(34,34,34);"/>
                </g>
            </g>
        </g>
    </g>
</svg>
