<?xml version="1.0" encoding="UTF-8" standalone="no"?>
<!DOCTYPE svg PUBLIC "-//W3C//DTD SVG 1.1//EN" "http://www.w3.org/Graphics/SVG/1.1/DTD/svg11.dtd">
<svg width="100%" height="100%" viewBox="0 0 512 512" version="1.1" xmlns="http://www.w3.org/2000/svg" xmlns:xlink="http://www.w3.org/1999/xlink" xml:space="preserve" xmlns:serif="http://www.serif.com/" style="fill-rule:evenodd;clip-rule:evenodd;stroke-linejoin:round;stroke-miterlimit:2;">
    <g transform="matrix(1,0,0,1,-47,0)">
        <g id="_-grinning-face" serif:id=" grinning-face" transform="matrix(1,0,0,1,47.9591,0)">
            <rect x="0" y="0" width="512" height="512" style="fill:none;"/>
            <g transform="matrix(0.16518,0,0,0.16518,-776.056,135.896)">
                <g transform="matrix(1.20924,0,0,1.16896,3710.53,-1455.44)">
                    <circle cx="2098.45" cy="1867.09" r="819.926" style="fill:rgb(244,179,40);"/>
                </g>
                <g>
                    <g transform="matrix(0.926868,7.16489e-18,-7.16489e-18,-0.868362,4438.14,4417.25)">
                        <path d="M2590.94,4048.37C2591.93,4061.29 2587.81,4074.06 2579.58,4083.58C2571.36,4093.11 2559.77,4098.53 2547.63,4098.53C2349.11,4098.62 1556.33,4098.62 1357.81,4098.62C1345.65,4098.62 1334.04,4093.19 1325.8,4083.64C1317.55,4074.1 1313.43,4061.31 1314.42,4048.37C1340.13,3718.31 1616.08,3458.46 1952.72,3458.46C2289.36,3458.46 2565.31,3718.31 2590.94,4048.37Z" style="fill:rgb(116,0,5);"/>
                        <clipPath id="_clip1">
                            <path d="M2590.94,4048.37C2591.93,4061.29 2587.81,4074.06 2579.58,4083.58C2571.36,4093.11 2559.77,4098.53 2547.63,4098.53C2349.11,4098.62 1556.33,4098.62 1357.81,4098.62C1345.65,4098.62 1334.04,4093.19 1325.8,4083.64C1317.55,4074.1 1313.43,4061.31 1314.42,4048.37C1340.13,3718.31 1616.08,3458.46 1952.72,3458.46C2289.36,3458.46 2565.31,3718.31 2590.94,4048.37Z"/>
                        </clipPath>
                        <g clip-path="url(#_clip1)">
                            <g transform="matrix(-1.57467,1.92842e-16,1.4103e-16,1.15159,5805.63,-173.208)">
                                <path d="M2445.95,2804C2445.95,2804 2610.03,3094.65 2719.5,3288.56C2737.01,3319.58 2740.69,3362.57 2728.94,3398.92C2717.19,3435.27 2692.12,3458.46 2664.58,3458.46L2227.33,3458.46C2199.79,3458.46 2174.72,3435.27 2162.97,3398.92C2151.22,3362.57 2154.89,3319.58 2172.41,3288.56C2281.88,3094.65 2445.95,2804 2445.95,2804Z" style="fill:rgb(223,4,10);"/>
                            </g>
                            <g transform="matrix(1.16201,9.58775e-18,-8.90207e-18,-1.15159,113.193,6265.78)">
                                <path d="M2100.68,1881.87L2100.68,1881.88C2100.68,1900.86 2093.68,1919.06 2081.21,1932.48C2068.75,1945.9 2051.85,1953.45 2034.23,1953.45C1847.69,1953.45 1320.72,1953.45 1134.18,1953.45C1116.56,1953.45 1099.66,1945.9 1087.19,1932.48C1074.73,1919.06 1067.73,1900.86 1067.73,1881.88C1067.73,1881.87 1067.73,1881.87 1067.73,1881.87L2100.68,1881.87Z" style="fill:rgb(233,233,233);"/>
                            </g>
                        </g>
                    </g>
                    <g transform="matrix(1,0,0,1,4608.89,-1657.9)">
                        <circle cx="1082.84" cy="2231.17" r="123.845" style="fill:rgb(34,34,34);"/>
                    </g>
                    <g transform="matrix(1,0,0,1,5721.54,-1657.9)">
                        <circle cx="1082.84" cy="2231.17" r="123.845" style="fill:rgb(34,34,34);"/>
                    </g>
                </g>
            </g>
        </g>
    </g>
</svg>
