<?xml version="1.0" encoding="UTF-8" standalone="no"?>
<!DOCTYPE svg PUBLIC "-//W3C//DTD SVG 1.1//EN" "http://www.w3.org/Graphics/SVG/1.1/DTD/svg11.dtd">
<svg width="100%" height="100%" viewBox="0 0 512 512" version="1.1" xmlns="http://www.w3.org/2000/svg" xmlns:xlink="http://www.w3.org/1999/xlink" xml:space="preserve" xmlns:serif="http://www.serif.com/" style="fill-rule:evenodd;clip-rule:evenodd;stroke-linejoin:round;stroke-miterlimit:2;">
    <g transform="matrix(1,0,0,1,-2898,0)">
        <g id="_-grinning-face-with-sweat" serif:id=" grinning-face-with-sweat" transform="matrix(1,0,0,1,2898.24,0)">
            <rect x="0" y="0" width="512" height="512" style="fill:none;"/>
            <g transform="matrix(0.16518,0,0,0.16518,535.718,311.301)">
                <g transform="matrix(1.20924,0,0,1.16896,-4230.94,-2517.34)">
                    <circle cx="2098.45" cy="1867.09" r="819.926" style="fill:rgb(244,179,40);"/>
                </g>
                <g transform="matrix(0.647145,5.00257e-18,-5.00257e-18,-0.606296,-2957.07,2396.25)">
                    <path d="M2588.55,4023.77C2590.82,4042.67 2585.36,4061.7 2573.56,4076.01C2561.77,4090.31 2544.77,4098.51 2526.92,4098.51C2306.75,4098.62 1598.69,4098.62 1378.52,4098.62C1360.63,4098.62 1343.61,4090.41 1331.8,4076.08C1319.98,4061.75 1314.51,4042.69 1316.78,4023.75C1353.96,3705.49 1624.49,3458.46 1952.72,3458.46C2280.95,3458.46 2551.48,3705.49 2588.55,4023.77Z" style="fill:rgb(116,0,5);"/>
                    <clipPath id="_clip1">
                        <path d="M2588.55,4023.77C2590.82,4042.67 2585.36,4061.7 2573.56,4076.01C2561.77,4090.31 2544.77,4098.51 2526.92,4098.51C2306.75,4098.62 1598.69,4098.62 1378.52,4098.62C1360.63,4098.62 1343.61,4090.41 1331.8,4076.08C1319.98,4061.75 1314.51,4042.69 1316.78,4023.75C1353.96,3705.49 1624.49,3458.46 1952.72,3458.46C2280.95,3458.46 2551.48,3705.49 2588.55,4023.77Z"/>
                    </clipPath>
                    <g clip-path="url(#_clip1)">
                        <g transform="matrix(-1.57467,1.92842e-16,1.4103e-16,1.15159,5805.63,-173.208)">
                            <path d="M2445.95,2804C2445.95,2804 2573.17,3029.35 2678.3,3215.58C2703.33,3259.92 2708.59,3321.37 2691.79,3373.34C2674.99,3425.31 2639.16,3458.46 2599.79,3458.46L2292.12,3458.46C2252.75,3458.46 2216.91,3425.31 2200.12,3373.34C2183.32,3321.37 2188.57,3259.92 2213.61,3215.58C2318.74,3029.35 2445.95,2804 2445.95,2804Z" style="fill:rgb(223,4,10);"/>
                        </g>
                    </g>
                </g>
                <g transform="matrix(1,0,0,-1,-4179.09,2049.84)">
                    <path d="M2866.76,2430.5C2835.16,2416.38 2798.05,2430.57 2783.92,2462.16C2769.8,2493.76 2783.98,2530.88 2815.58,2545C2854.51,2562.4 2908.44,2560.76 2962,2540.99C3032.11,2515.12 3099.89,2459.57 3125.03,2406.86C3139.93,2375.62 3126.66,2338.16 3095.42,2323.26C3064.18,2308.37 3026.72,2321.63 3011.83,2352.87C2997.91,2382.05 2957.39,2409.01 2918.58,2423.33C2899.45,2430.39 2880.66,2436.72 2866.76,2430.5Z" style="fill:rgb(34,34,34);"/>
                </g>
                <g transform="matrix(-1,0,0,-1,745.26,2049.84)">
                    <path d="M2815.58,2545C2783.98,2530.88 2769.8,2493.76 2783.92,2462.16C2798.05,2430.57 2835.16,2416.38 2866.76,2430.5C2880.66,2436.72 2899.45,2430.39 2918.58,2423.33C2957.39,2409.01 2997.91,2382.05 3011.83,2352.87C3026.72,2321.63 3064.18,2308.37 3095.42,2323.26C3126.66,2338.16 3139.93,2375.62 3125.03,2406.86C3099.89,2459.57 3032.11,2515.12 2962,2540.99C2908.44,2560.76 2854.51,2562.4 2815.58,2545Z" style="fill:rgb(34,34,34);"/>
                </g>
                <g transform="matrix(0.653883,5.55112e-17,-5.55112e-17,0.653883,-1764.42,-2282.19)">
                    <path d="M1097.37,1735.65C1107.71,1711.58 1131.38,1695.98 1157.58,1695.98C1183.77,1695.98 1207.44,1711.58 1217.78,1735.65C1284.33,1890.83 1382.25,2141.83 1382.25,2275.32C1382.25,2399.33 1281.58,2500 1157.58,2500C1033.57,2500 932.898,2399.33 932.898,2275.32C932.898,2141.83 1030.82,1890.83 1097.37,1735.65Z" style="fill:rgb(69,132,255);"/>
                </g>
            </g>
        </g>
    </g>
</svg>
