<?xml version="1.0" encoding="UTF-8" standalone="no"?>
<!DOCTYPE svg PUBLIC "-//W3C//DTD SVG 1.1//EN" "http://www.w3.org/Graphics/SVG/1.1/DTD/svg11.dtd">
<svg width="100%" height="100%" viewBox="0 0 512 512" version="1.1" xmlns="http://www.w3.org/2000/svg" xmlns:xlink="http://www.w3.org/1999/xlink" xml:space="preserve" xmlns:serif="http://www.serif.com/" style="fill-rule:evenodd;clip-rule:evenodd;stroke-linejoin:round;stroke-miterlimit:2;">
    <g transform="matrix(1,0,0,1,-2295,0)">
        <g id="grinning-squinting-face" transform="matrix(1,0,0,1,2295.7,0)">
            <rect x="0" y="0" width="512" height="512" style="fill:none;"/>
            <g transform="matrix(0.16518,0,0,0.16518,-156.951,-156.951)">
                <g transform="matrix(1.20924,0,0,1.16896,-37.5235,317.451)">
                    <circle cx="2098.45" cy="1867.09" r="819.926" style="fill:rgb(244,179,40);"/>
                </g>
                <g transform="matrix(0.926868,7.16489e-18,-7.16489e-18,-0.868362,690.126,6174.7)">
                    <path d="M2590.95,4048.47C2591.93,4061.36 2587.82,4074.11 2579.61,4083.62C2571.4,4093.12 2559.83,4098.53 2547.72,4098.53C2349.31,4098.62 1556.13,4098.62 1357.72,4098.62C1345.58,4098.62 1334,4093.2 1325.77,4083.68C1317.54,4074.15 1313.42,4061.38 1314.41,4048.47C1340.07,3718.36 1616.05,3458.46 1952.72,3458.46C2289.39,3458.46 2565.37,3718.36 2590.95,4048.47Z" style="fill:rgb(116,0,5);"/>
                    <clipPath id="_clip1">
                        <path d="M2590.95,4048.47C2591.93,4061.36 2587.82,4074.11 2579.61,4083.62C2571.4,4093.12 2559.83,4098.53 2547.72,4098.53C2349.31,4098.62 1556.13,4098.62 1357.72,4098.62C1345.58,4098.62 1334,4093.2 1325.77,4083.68C1317.54,4074.15 1313.42,4061.38 1314.41,4048.47C1340.07,3718.36 1616.05,3458.46 1952.72,3458.46C2289.39,3458.46 2565.37,3718.36 2590.95,4048.47Z"/>
                    </clipPath>
                    <g clip-path="url(#_clip1)">
                        <g transform="matrix(-1.57467,1.92842e-16,1.4103e-16,1.15159,5805.63,-173.208)">
                            <path d="M2445.95,2804C2445.95,2804 2610.21,3094.97 2719.68,3288.88C2737.16,3319.84 2740.83,3362.74 2729.1,3399.03C2717.37,3435.31 2692.35,3458.46 2664.86,3458.46L2227.05,3458.46C2199.56,3458.46 2174.54,3435.31 2162.81,3399.03C2151.08,3362.74 2154.75,3319.84 2172.23,3288.88C2281.7,3094.97 2445.95,2804 2445.95,2804Z" style="fill:rgb(223,4,10);"/>
                        </g>
                        <g transform="matrix(1.16201,9.58775e-18,-8.90207e-18,-1.15159,111.824,6265.78)">
                            <path d="M2100.68,1881.87L2100.68,1881.88C2100.68,1900.86 2093.68,1919.06 2081.21,1932.48C2068.75,1945.9 2051.85,1953.45 2034.23,1953.45C1847.69,1953.45 1320.72,1953.45 1134.18,1953.45C1116.56,1953.45 1099.66,1945.9 1087.19,1932.48C1074.73,1919.06 1067.73,1900.86 1067.73,1881.88C1067.73,1881.87 1067.73,1881.87 1067.73,1881.87L2100.68,1881.87Z" style="fill:rgb(233,233,233);"/>
                        </g>
                    </g>
                </g>
                <g transform="matrix(4.46714e-17,0.72954,-1,6.12323e-17,4306.8,851.893)">
                    <path d="M2224.23,2379.7C2243.5,2405.55 2230.38,2437.95 2194.94,2452.01C2159.51,2466.06 2115.1,2456.49 2095.84,2430.64L2001.18,2303.66L1909.06,2430.18C1890.14,2456.17 1845.87,2466.06 1810.25,2452.26C1774.63,2438.45 1761.07,2406.15 1779.99,2380.16L1935.88,2166.04C1948.5,2148.71 1973.15,2137.83 2000.06,2137.74C2026.96,2137.64 2051.76,2148.34 2064.61,2165.58L2224.23,2379.7Z" style="fill:rgb(34,34,34);"/>
                </g>
                <g transform="matrix(-4.46714e-17,0.72954,1,6.12323e-17,693.197,851.893)">
                    <path d="M2095.84,2430.64C2115.1,2456.49 2159.51,2466.06 2194.94,2452.01C2230.38,2437.95 2243.5,2405.55 2224.23,2379.7L2064.61,2165.58C2051.76,2148.34 2026.96,2137.64 2000.06,2137.74C1973.15,2137.83 1948.5,2148.71 1935.88,2166.04L1779.99,2380.16C1761.07,2406.15 1774.63,2438.45 1810.25,2452.26C1845.87,2466.06 1890.14,2456.17 1909.06,2430.18L2001.18,2303.66L2095.84,2430.64Z" style="fill:rgb(34,34,34);"/>
                </g>
            </g>
        </g>
    </g>
</svg>
