<?xml version="1.0" encoding="UTF-8" standalone="no"?>
<!DOCTYPE svg PUBLIC "-//W3C//DTD SVG 1.1//EN" "http://www.w3.org/Graphics/SVG/1.1/DTD/svg11.dtd">
<svg width="100%" height="100%" viewBox="0 0 512 512" version="1.1" xmlns="http://www.w3.org/2000/svg" xmlns:xlink="http://www.w3.org/1999/xlink" xml:space="preserve" xmlns:serif="http://www.serif.com/" style="fill-rule:evenodd;clip-rule:evenodd;stroke-linejoin:round;stroke-miterlimit:2;">
    <g transform="matrix(1,0,0,1,-607,0)">
        <g id="grinning-face-with-big-eyes" transform="matrix(1,0,0,1,607.675,0)">
            <rect x="0" y="0" width="512" height="512" style="fill:none;"/>
            <g transform="matrix(0.16518,0,0,0.16518,-1176,140.851)">
                <g transform="matrix(1.20924,0,0,1.16896,6131.82,-1485.44)">
                    <circle cx="2098.45" cy="1867.09" r="819.926" style="fill:rgb(244,179,40);"/>
                </g>
                <g transform="matrix(0.926868,7.16489e-18,-7.16489e-18,-0.868362,6859.43,4387.25)">
                    <path d="M2590.95,4048.47C2591.93,4061.36 2587.82,4074.11 2579.61,4083.62C2571.4,4093.12 2559.83,4098.53 2547.72,4098.53C2349.31,4098.62 1556.13,4098.62 1357.72,4098.62C1345.58,4098.62 1334,4093.2 1325.77,4083.68C1317.54,4074.15 1313.42,4061.38 1314.41,4048.47C1340.07,3718.36 1616.05,3458.46 1952.72,3458.46C2289.39,3458.46 2565.37,3718.36 2590.95,4048.47Z" style="fill:rgb(116,0,5);"/>
                    <clipPath id="_clip1">
                        <path d="M2590.95,4048.47C2591.93,4061.36 2587.82,4074.11 2579.61,4083.62C2571.4,4093.12 2559.83,4098.53 2547.72,4098.53C2349.31,4098.62 1556.13,4098.62 1357.72,4098.62C1345.58,4098.62 1334,4093.2 1325.77,4083.68C1317.54,4074.15 1313.42,4061.38 1314.41,4048.47C1340.07,3718.36 1616.05,3458.46 1952.72,3458.46C2289.39,3458.46 2565.37,3718.36 2590.95,4048.47Z"/>
                    </clipPath>
                    <g clip-path="url(#_clip1)">
                        <g transform="matrix(-1.57467,1.92842e-16,1.4103e-16,1.15159,5805.63,-173.208)">
                            <path d="M2445.95,2804C2445.95,2804 2610.21,3094.97 2719.68,3288.88C2737.16,3319.84 2740.83,3362.74 2729.1,3399.03C2717.37,3435.31 2692.35,3458.46 2664.86,3458.46L2227.05,3458.46C2199.56,3458.46 2174.54,3435.31 2162.81,3399.03C2151.08,3362.74 2154.75,3319.84 2172.23,3288.88C2281.7,3094.97 2445.95,2804 2445.95,2804Z" style="fill:rgb(223,4,10);"/>
                        </g>
                        <g transform="matrix(1.16201,9.58775e-18,-8.90207e-18,-1.15159,111.866,6265.78)">
                            <path d="M2100.68,1881.87L2100.68,1881.88C2100.68,1900.86 2093.68,1919.06 2081.21,1932.48C2068.75,1945.9 2051.85,1953.45 2034.23,1953.45C1847.69,1953.45 1320.72,1953.45 1134.18,1953.45C1116.56,1953.45 1099.66,1945.9 1087.19,1932.48C1074.73,1919.06 1067.73,1900.86 1067.73,1881.88C1067.73,1881.87 1067.73,1881.87 1067.73,1881.87L2100.68,1881.87Z" style="fill:rgb(233,233,233);"/>
                        </g>
                    </g>
                </g>
                <g transform="matrix(1,0,0,1.38843,7030.17,-2572.67)">
                    <circle cx="1082.84" cy="2231.17" r="123.845" style="fill:rgb(34,34,34);"/>
                </g>
                <g transform="matrix(1,0,0,1.38843,8142.83,-2572.67)">
                    <circle cx="1082.84" cy="2231.17" r="123.845" style="fill:rgb(34,34,34);"/>
                </g>
            </g>
        </g>
    </g>
</svg>
