<?xml version="1.0" encoding="UTF-8" standalone="no"?>
<!DOCTYPE svg PUBLIC "-//W3C//DTD SVG 1.1//EN" "http://www.w3.org/Graphics/SVG/1.1/DTD/svg11.dtd">
<svg width="100%" height="100%" viewBox="0 0 512 512" version="1.1" xmlns="http://www.w3.org/2000/svg" xmlns:xlink="http://www.w3.org/1999/xlink" xml:space="preserve" xmlns:serif="http://www.serif.com/" style="fill-rule:evenodd;clip-rule:evenodd;stroke-linejoin:round;stroke-miterlimit:2;">
    <g transform="matrix(1,0,0,1,-3499,0)">
        <g id="rolling-on-the-floor-laughing" transform="matrix(1,0,0,1,3499.66,0)">
            <rect x="0" y="0" width="512" height="512" style="fill:none;"/>
            <g transform="matrix(0.119509,-0.119509,0.119509,0.119509,-341.546,256)">
                <g transform="matrix(1.20924,0,0,1.16896,-37.5235,317.451)">
                    <circle cx="2098.45" cy="1867.09" r="819.926" style="fill:rgb(244,179,40);"/>
                </g>
                <g transform="matrix(0.7717,5.96541e-18,-5.96541e-18,-0.722989,993.079,5463.26)">
                    <path d="M2589.98,4037.23C2591.48,4052.88 2586.7,4068.48 2576.83,4080.16C2566.95,4091.85 2552.9,4098.51 2538.16,4098.51C2328.41,4098.62 1577.03,4098.62 1367.28,4098.62C1352.51,4098.62 1338.43,4091.94 1328.54,4080.24C1318.64,4068.53 1313.85,4052.9 1315.36,4037.22C1346.36,3712.48 1619.88,3458.46 1952.72,3458.46C2285.56,3458.46 2559.08,3712.48 2589.98,4037.23Z" style="fill:rgb(116,0,5);"/>
                    <clipPath id="_clip1">
                        <path d="M2589.98,4037.23C2591.48,4052.88 2586.7,4068.48 2576.83,4080.16C2566.95,4091.85 2552.9,4098.51 2538.16,4098.51C2328.41,4098.62 1577.03,4098.62 1367.28,4098.62C1352.51,4098.62 1338.43,4091.94 1328.54,4080.24C1318.64,4068.53 1313.85,4052.9 1315.36,4037.22C1346.36,3712.48 1619.88,3458.46 1952.72,3458.46C2285.56,3458.46 2559.08,3712.48 2589.98,4037.23Z"/>
                    </clipPath>
                    <g clip-path="url(#_clip1)">
                        <g transform="matrix(-1.57467,1.92842e-16,1.4103e-16,1.15159,5805.63,-173.208)">
                            <path d="M2445.95,2804C2445.95,2804 2591.98,3062.68 2700.43,3254.78C2721.42,3291.97 2725.83,3343.5 2711.74,3387.08C2697.66,3430.66 2667.6,3458.46 2634.59,3458.46C2519.88,3458.46 2372.02,3458.46 2257.32,3458.46C2224.3,3458.46 2194.25,3430.66 2180.16,3387.08C2166.08,3343.5 2170.48,3291.97 2191.48,3254.78C2299.92,3062.68 2445.95,2804 2445.95,2804Z" style="fill:rgb(223,4,10);"/>
                        </g>
                        <g transform="matrix(1.16201,0,0,-1.15159,111.866,6265.78)">
                            <path d="M2100.68,1881.87L2100.68,1897.92C2100.68,1912.65 2095.24,1926.77 2085.58,1937.18C2075.91,1947.6 2062.8,1953.45 2049.12,1953.45L1119.29,1953.45C1105.61,1953.45 1092.5,1947.6 1082.83,1937.18C1073.16,1926.77 1067.73,1912.65 1067.73,1897.92C1067.73,1888.6 1067.73,1881.87 1067.73,1881.87L2100.68,1881.87Z" style="fill:white;"/>
                        </g>
                    </g>
                </g>
                <g transform="matrix(0.707107,0.707107,-0.707107,0.707107,-456.486,-21796.8)">
                    <g transform="matrix(0.515862,0.515862,-0.707107,0.707107,19337.3,12601)">
                        <path d="M2224.23,2379.7C2243.5,2405.55 2230.38,2437.95 2194.94,2452.01C2159.51,2466.06 2115.1,2456.49 2095.84,2430.64L2001.18,2303.66L1909.06,2430.18C1890.14,2456.17 1845.87,2466.06 1810.25,2452.26C1774.63,2438.45 1761.07,2406.15 1779.99,2380.16L1935.88,2166.04C1948.5,2148.71 1973.15,2137.83 2000.06,2137.74C2026.96,2137.64 2051.76,2148.34 2064.61,2165.58L2224.23,2379.7Z" style="fill:rgb(34,34,34);"/>
                    </g>
                    <g transform="matrix(0.515862,0.515862,0.707107,-0.707107,16782.1,15156.2)">
                        <path d="M2095.84,2430.64C2115.1,2456.49 2159.51,2466.06 2194.94,2452.01C2230.38,2437.95 2243.5,2405.55 2224.23,2379.7L2064.61,2165.58C2051.76,2148.34 2026.96,2137.64 2000.06,2137.74C1973.15,2137.83 1948.5,2148.71 1935.88,2166.04L1779.99,2380.16C1761.07,2406.15 1774.63,2438.45 1810.25,2452.26C1845.87,2466.06 1890.14,2456.17 1909.06,2430.18L2001.18,2303.66L2095.84,2430.64Z" style="fill:rgb(34,34,34);"/>
                    </g>
                    <g transform="matrix(5.55112e-17,-0.653883,0.653883,5.55112e-17,18567.9,15311.8)">
                        <path d="M1097.37,1735.65C1107.71,1711.58 1131.38,1695.98 1157.58,1695.98C1183.77,1695.98 1207.44,1711.58 1217.78,1735.65C1284.33,1890.83 1382.25,2141.83 1382.25,2275.32C1382.25,2399.33 1281.58,2500 1157.58,2500C1033.57,2500 932.898,2399.33 932.898,2275.32C932.898,2141.83 1030.82,1890.83 1097.37,1735.65Z" style="fill:rgb(69,132,255);"/>
                    </g>
                    <g transform="matrix(-0.653883,5.55112e-17,5.55112e-17,0.653883,19492.9,14386.8)">
                        <path d="M1097.37,1735.65C1107.71,1711.58 1131.38,1695.98 1157.58,1695.98C1183.77,1695.98 1207.44,1711.58 1217.78,1735.65C1284.33,1890.83 1382.25,2141.83 1382.25,2275.32C1382.25,2399.33 1281.58,2500 1157.58,2500C1033.57,2500 932.898,2399.33 932.898,2275.32C932.898,2141.83 1030.82,1890.83 1097.37,1735.65Z" style="fill:rgb(69,132,255);"/>
                    </g>
                </g>
            </g>
        </g>
    </g>
</svg>
