<?xml version="1.0" encoding="UTF-8" standalone="no"?>
<!DOCTYPE svg PUBLIC "-//W3C//DTD SVG 1.1//EN" "http://www.w3.org/Graphics/SVG/1.1/DTD/svg11.dtd">
<svg width="100%" height="100%" viewBox="0 0 512 512" version="1.1" xmlns="http://www.w3.org/2000/svg" xmlns:xlink="http://www.w3.org/1999/xlink" xml:space="preserve" xmlns:serif="http://www.serif.com/" style="fill-rule:evenodd;clip-rule:evenodd;stroke-linecap:round;stroke-linejoin:round;stroke-miterlimit:1.5;">
    <g transform="matrix(1,0,0,1,-40,-582)">
        <g id="slightly-smiling-face" transform="matrix(1,0,0,1,40.1941,582.492)">
            <rect x="0" y="0" width="512" height="512" style="fill:none;"/>
            <g transform="matrix(0.16518,0,0,0.16518,-156.951,-156.951)">
                <g transform="matrix(1.20924,0,0,1.16896,-37.5235,317.451)">
                    <circle cx="2098.45" cy="1867.09" r="819.926" style="fill:rgb(244,179,40);"/>
                </g>
                <g transform="matrix(1.46047,0,0,-1.46047,-1078.83,7219.73)">
                    <path d="M2216.11,2959.61C2202.57,2979.06 2207.37,3005.84 2226.82,3019.38C2246.27,3032.92 2273.05,3028.12 2286.59,3008.67C2303.27,2984.72 2337.66,2939.2 2450.46,2939.2C2554.72,2939.2 2596.16,2987.39 2616.73,3011.81C2632,3029.93 2659.12,3032.25 2677.24,3016.97C2695.36,3001.7 2697.68,2974.59 2682.41,2956.47C2653.62,2922.3 2596.33,2853.32 2450.46,2853.32C2287.37,2853.32 2240.22,2924.97 2216.11,2959.61Z" style="fill:rgb(34,34,34);"/>
                </g>
                <g transform="matrix(1,0,0,1,1895.78,268.832)">
                    <circle cx="1082.84" cy="2231.17" r="123.845" style="fill:rgb(34,34,34);stroke:rgb(255,179,179);stroke-width:6.05px;"/>
                </g>
                <g transform="matrix(1,0,0,1,938.536,268.832)">
                    <circle cx="1082.84" cy="2231.17" r="123.845" style="fill:rgb(34,34,34);stroke:rgb(255,179,179);stroke-width:6.05px;"/>
                </g>
            </g>
        </g>
    </g>
</svg>
