<?xml version="1.0" encoding="UTF-8" standalone="no"?>
<!DOCTYPE svg PUBLIC "-//W3C//DTD SVG 1.1//EN" "http://www.w3.org/Graphics/SVG/1.1/DTD/svg11.dtd">
<svg width="100%" height="100%" viewBox="0 0 512 512" version="1.1" xmlns="http://www.w3.org/2000/svg" xmlns:xlink="http://www.w3.org/1999/xlink" xml:space="preserve" xmlns:serif="http://www.serif.com/" style="fill-rule:evenodd;clip-rule:evenodd;stroke-linejoin:round;stroke-miterlimit:2;">
    <g transform="matrix(1,0,0,1,-2302,-582)">
        <g id="smiling-face-with-hearts" transform="matrix(1,0,0,1,2302.06,582.492)">
            <rect x="0" y="0" width="512" height="512" style="fill:none;"/>
            <g transform="matrix(0.16518,0,0,0.16518,-156.727,-156.951)">
                <g transform="matrix(1.20924,0,0,1.16896,-37.5235,317.451)">
                    <circle cx="2098.45" cy="1867.09" r="819.926" style="fill:rgb(244,179,40);"/>
                </g>
                <g transform="matrix(1.46047,0,0,-1.46047,-1078.82,7145.84)">
                    <path d="M2216.11,2959.61C2202.57,2979.06 2207.37,3005.84 2226.82,3019.38C2246.27,3032.92 2273.05,3028.12 2286.59,3008.67C2303.27,2984.72 2337.66,2939.2 2450.46,2939.2C2554.72,2939.2 2596.16,2987.39 2616.73,3011.81C2632,3029.93 2659.12,3032.25 2677.24,3016.97C2695.36,3001.7 2697.68,2974.59 2682.41,2956.47C2653.62,2922.3 2596.33,2853.32 2450.46,2853.32C2287.37,2853.32 2240.22,2924.97 2216.11,2959.61Z" style="fill:rgb(34,34,34);"/>
                </g>
                <g transform="matrix(1,0,0,1,-1491.37,-17722.8)">
                    <g transform="matrix(1,0,0,-1,1505.69,22544.8)">
                        <path d="M2866.76,2430.5C2835.16,2416.38 2798.05,2430.57 2783.92,2462.16C2769.8,2493.76 2783.98,2530.88 2815.58,2545C2854.51,2562.4 2908.44,2560.76 2962,2540.99C3032.11,2515.12 3099.89,2459.57 3125.03,2406.86C3139.93,2375.62 3126.66,2338.16 3095.42,2323.26C3064.18,2308.37 3026.72,2321.63 3011.83,2352.87C2997.91,2382.05 2957.39,2409.01 2918.58,2423.33C2899.45,2430.39 2880.66,2436.72 2866.76,2430.5Z" style="fill:rgb(34,34,34);"/>
                    </g>
                    <g transform="matrix(-1,0,0,-1,6430.05,22544.8)">
                        <path d="M2815.58,2545C2783.98,2530.88 2769.8,2493.76 2783.92,2462.16C2798.05,2430.57 2835.16,2416.38 2866.76,2430.5C2880.66,2436.72 2899.45,2430.39 2918.58,2423.33C2957.39,2409.01 2997.91,2382.05 3011.83,2352.87C3026.72,2321.63 3064.18,2308.37 3095.42,2323.26C3126.66,2338.16 3139.93,2375.62 3125.03,2406.86C3099.89,2459.57 3032.11,2515.12 2962,2540.99C2908.44,2560.76 2854.51,2562.4 2815.58,2545Z" style="fill:rgb(34,34,34);"/>
                    </g>
                </g>
                <g transform="matrix(1,0,0,1,-1491.37,-17722.8)">
                    <g transform="matrix(-0.585187,0.121277,0.121277,0.585187,16434.7,11112.9)">
                        <path d="M24441.2,9145.12C24578,9020.28 24790.1,9012.82 24922.4,9145.12C25054.6,9277.33 25058.5,9489.31 24933.9,9626.12C24930.2,9630.19 24926.4,9634.19 24922.4,9638.11C24922.4,9638.11 24676.9,9883.68 24536.6,10024C24511.3,10049.3 24476.9,10063.5 24441.2,10063.5C24405.4,10063.5 24371.1,10049.3 24345.8,10024C24205.4,9883.68 23959.9,9638.11 23959.9,9638.11C23955.9,9634.19 23952.1,9630.19 23948.4,9626.12C23823.9,9489.31 23827.7,9277.33 23959.9,9145.12C24092.2,9012.82 24304.4,9020.28 24441.2,9145.12Z" style="fill:rgb(227,4,113);"/>
                    </g>
                    <g transform="matrix(-0.524511,0.0598521,0.0598521,0.524511,15524.2,14238.2)">
                        <path d="M24441.2,9145.12C24578,9020.28 24790.1,9012.82 24922.4,9145.12C25054.6,9277.33 25058.5,9489.31 24933.9,9626.12C24930.2,9630.19 24926.4,9634.19 24922.4,9638.11C24922.4,9638.11 24691,9869.5 24549.2,10011.4C24520.5,10040 24481.7,10056.1 24441.2,10056.1C24400.6,10056.1 24361.8,10040 24333.2,10011.4C24191.3,9869.5 23959.9,9638.11 23959.9,9638.11C23955.9,9634.19 23952.1,9630.19 23948.4,9626.12C23823.9,9489.31 23827.7,9277.33 23959.9,9145.12C24092.2,9012.82 24304.4,9020.28 24441.2,9145.12Z" style="fill:rgb(227,4,113);"/>
                    </g>
                    <g transform="matrix(-0.549453,-0.147226,-0.147226,0.549453,19579.4,18968.9)">
                        <path d="M24441.2,9145.12C24578,9020.28 24790.1,9012.82 24922.4,9145.12C25054.6,9277.33 25058.5,9489.31 24933.9,9626.12C24930.2,9630.19 24926.4,9634.19 24922.4,9638.11C24922.4,9638.11 24682.4,9878.12 24541.4,10019.2C24486,10074.5 24396.3,10074.5 24340.9,10019.2C24199.9,9878.12 23959.9,9638.11 23959.9,9638.11C23955.9,9634.19 23952.1,9630.19 23948.4,9626.12C23823.9,9489.31 23827.7,9277.33 23959.9,9145.12C24092.2,9012.82 24304.4,9020.28 24441.2,9145.12Z" style="fill:rgb(227,4,113);"/>
                    </g>
                </g>
            </g>
        </g>
    </g>
</svg>
