<?xml version="1.0" encoding="UTF-8" standalone="no"?>
<!DOCTYPE svg PUBLIC "-//W3C//DTD SVG 1.1//EN" "http://www.w3.org/Graphics/SVG/1.1/DTD/svg11.dtd">
<svg width="100%" height="100%" viewBox="0 0 512 512" version="1.1" xmlns="http://www.w3.org/2000/svg" xmlns:xlink="http://www.w3.org/1999/xlink" xml:space="preserve" xmlns:serif="http://www.serif.com/" style="fill-rule:evenodd;clip-rule:evenodd;stroke-linejoin:round;stroke-miterlimit:2;">
    <g transform="matrix(1,0,0,1,-2903,-582)">
        <g id="smiling-face-with-heart-eyes" transform="matrix(1,0,0,1,2903.68,582.492)">
            <rect x="0" y="0" width="512" height="512" style="fill:none;"/>
            <g transform="matrix(0.16518,0,0,0.16518,699.94,-204.193)">
                <g transform="matrix(1.20924,0,0,1.16896,-5225.13,603.458)">
                    <circle cx="2098.45" cy="1867.09" r="819.926" style="fill:rgb(244,179,40);"/>
                </g>
                <g transform="matrix(0.925148,7.15159e-18,-7.15159e-18,-0.866751,-4494.12,6474.06)">
                    <path d="M2590.94,4048.37C2591.93,4061.29 2587.81,4074.06 2579.58,4083.58C2571.36,4093.11 2559.77,4098.53 2547.63,4098.53C2349.11,4098.62 1556.33,4098.62 1357.81,4098.62C1345.65,4098.62 1334.04,4093.19 1325.8,4083.64C1317.55,4074.1 1313.43,4061.31 1314.42,4048.37C1340.13,3718.31 1616.08,3458.46 1952.72,3458.46C2289.36,3458.46 2565.31,3718.31 2590.94,4048.37Z" style="fill:rgb(116,0,5);"/>
                    <clipPath id="_clip1">
                        <path d="M2590.94,4048.37C2591.93,4061.29 2587.81,4074.06 2579.58,4083.58C2571.36,4093.11 2559.77,4098.53 2547.63,4098.53C2349.11,4098.62 1556.33,4098.62 1357.81,4098.62C1345.65,4098.62 1334.04,4093.19 1325.8,4083.64C1317.55,4074.1 1313.43,4061.31 1314.42,4048.37C1340.13,3718.31 1616.08,3458.46 1952.72,3458.46C2289.36,3458.46 2565.31,3718.31 2590.94,4048.37Z"/>
                    </clipPath>
                    <g clip-path="url(#_clip1)">
                        <g transform="matrix(-1.57467,1.92842e-16,1.4103e-16,1.15159,5805.63,-173.208)">
                            <path d="M2445.95,3109.21C2445.95,3109.21 2610.03,3094.65 2719.5,3288.56C2737.01,3319.58 2740.69,3362.57 2728.94,3398.92C2717.19,3435.27 2692.12,3458.46 2664.58,3458.46C2536.95,3458.46 2354.95,3458.46 2227.33,3458.46C2199.79,3458.46 2174.72,3435.27 2162.97,3398.92C2151.22,3362.57 2154.89,3319.58 2172.41,3288.56C2281.88,3094.65 2445.95,3109.21 2445.95,3109.21Z" style="fill:rgb(223,4,10);"/>
                        </g>
                        <g transform="matrix(1.16201,9.58775e-18,-8.90207e-18,-1.15159,111.866,6265.78)">
                            <path d="M2100.68,1881.87C2100.68,1881.87 2100.68,1893.36 2100.68,1907.13C2100.68,1932.71 2081.42,1953.45 2057.67,1953.45C1889.68,1953.45 1278.73,1953.45 1110.74,1953.45C1086.98,1953.45 1067.73,1932.71 1067.73,1907.13C1067.73,1893.36 1067.73,1881.87 1067.73,1881.87L2100.68,1881.87Z" style="fill:rgb(233,233,233);"/>
                        </g>
                    </g>
                </g>
                <g>
                    <g transform="matrix(0.46334,0.183126,-0.183126,0.46334,-11794.7,-6348.95)">
                        <path d="M24441.2,9145.12C24578,9020.28 24790.1,9012.82 24922.4,9145.12C25054.6,9277.33 25058.5,9489.31 24933.9,9626.12C24930.2,9630.19 24926.4,9634.19 24922.4,9638.11C24922.4,9638.11 24716.8,9843.76 24574.3,9986.2C24539,10021.5 24491.1,10041.4 24441.2,10041.4C24391.2,10041.4 24343.3,10021.5 24308,9986.2C24165.5,9843.76 23959.9,9638.11 23959.9,9638.11C23955.9,9634.19 23952.1,9630.19 23948.4,9626.12C23823.9,9489.31 23827.7,9277.33 23959.9,9145.12C24092.2,9012.82 24304.4,9020.28 24441.2,9145.12Z" style="fill:rgb(227,4,113);"/>
                    </g>
                    <g transform="matrix(-0.46334,0.183126,0.183126,0.46334,6419.47,-6348.95)">
                        <path d="M24441.2,9145.12C24578,9020.28 24790.1,9012.82 24922.4,9145.12C25054.6,9277.33 25058.5,9489.31 24933.9,9626.12C24930.2,9630.19 24926.4,9634.19 24922.4,9638.11C24922.4,9638.11 24716.8,9843.76 24574.3,9986.2C24539,10021.5 24491.1,10041.4 24441.2,10041.4C24391.2,10041.4 24343.3,10021.5 24308,9986.2C24165.5,9843.76 23959.9,9638.11 23959.9,9638.11C23955.9,9634.19 23952.1,9630.19 23948.4,9626.12C23823.9,9489.31 23827.7,9277.33 23959.9,9145.12C24092.2,9012.82 24304.4,9020.28 24441.2,9145.12Z" style="fill:rgb(227,4,113);"/>
                    </g>
                </g>
            </g>
        </g>
    </g>
</svg>
