<?xml version="1.0" encoding="UTF-8" standalone="no"?>
<!DOCTYPE svg PUBLIC "-//W3C//DTD SVG 1.1//EN" "http://www.w3.org/Graphics/SVG/1.1/DTD/svg11.dtd">
<svg width="100%" height="100%" viewBox="0 0 512 512" version="1.1" xmlns="http://www.w3.org/2000/svg" xmlns:xlink="http://www.w3.org/1999/xlink" xml:space="preserve" xmlns:serif="http://www.serif.com/" style="fill-rule:evenodd;clip-rule:evenodd;stroke-linejoin:round;stroke-miterlimit:2;">
    <g transform="matrix(1,0,0,1,-1720,-582)">
        <g id="smiling-face-with-halo" transform="matrix(1,0,0,1,1720.86,582.492)">
            <rect x="0" y="0" width="512" height="512" style="fill:none;"/>
            <g transform="matrix(0.16518,0,0,0.16518,-252.848,472.744)">
                <g transform="matrix(1.20924,0,0,1.16896,543.035,-3494.88)">
                    <circle cx="2098.45" cy="1867.09" r="819.926" style="fill:rgb(244,179,40);"/>
                </g>
                <g transform="matrix(1.07322,0,0,1.07322,-11277.7,-11399.9)">
                    <g transform="matrix(1,0,0,-1,10916.5,11842.4)">
                        <path d="M2866.76,2430.5C2835.16,2416.38 2798.05,2430.57 2783.92,2462.16C2769.8,2493.76 2783.98,2530.88 2815.58,2545C2854.51,2562.4 2908.44,2560.76 2962,2540.99C3032.11,2515.12 3099.89,2459.57 3125.03,2406.86C3139.93,2375.62 3126.66,2338.16 3095.42,2323.26C3064.18,2308.37 3026.72,2321.63 3011.83,2352.87C2997.91,2382.05 2957.39,2409.01 2918.58,2423.33C2899.45,2430.39 2880.66,2436.72 2866.76,2430.5Z" style="fill:rgb(34,34,34);"/>
                    </g>
                    <g transform="matrix(-1,0,0,-1,15840.8,11842.4)">
                        <path d="M2815.58,2545C2783.98,2530.88 2769.8,2493.76 2783.92,2462.16C2798.05,2430.57 2835.16,2416.38 2866.76,2430.5C2880.66,2436.72 2899.45,2430.39 2918.58,2423.33C2957.39,2409.01 2997.91,2382.05 3011.83,2352.87C3026.72,2321.63 3064.18,2308.37 3095.42,2323.26C3126.66,2338.16 3139.93,2375.62 3125.03,2406.86C3099.89,2459.57 3032.11,2515.12 2962,2540.99C2908.44,2560.76 2854.51,2562.4 2815.58,2545Z" style="fill:rgb(34,34,34);"/>
                    </g>
                </g>
                <g transform="matrix(1.46047,0,0,-1.46047,-498.266,3417.94)">
                    <path d="M2216.11,2959.61C2202.57,2979.06 2207.37,3005.84 2226.82,3019.38C2246.27,3032.92 2273.05,3028.12 2286.59,3008.67C2303.27,2984.72 2337.66,2939.2 2450.46,2939.2C2554.72,2939.2 2596.16,2987.39 2616.73,3011.81C2632,3029.93 2659.12,3032.25 2677.24,3016.97C2695.36,3001.7 2697.68,2974.59 2682.41,2956.47C2653.62,2922.3 2596.33,2853.32 2450.46,2853.32C2287.37,2853.32 2240.22,2924.97 2216.11,2959.61Z" style="fill:rgb(34,34,34);"/>
                </g>
                <g transform="matrix(0.464725,0,0,0.413774,5635.62,-8598.57)">
                    <path d="M-5497.95,14884.4C-5301.53,14885.5 -4862.18,14858.6 -4366.09,14954.2C-4229.29,14980.5 -4075.34,15019.7 -3943.82,15077.5C-3937.48,15080.3 -3937.35,15079.9 -3919.16,15086.6C-3849.7,15112.2 -3805.99,15137.1 -3782.35,15151.5C-3782.25,15151.5 -3754.54,15171.6 -3725.02,15200.2C-3589.22,15331.9 -3575.36,15485.2 -3610.57,15599.7C-3662.09,15767.3 -3819.45,15872.4 -3989.81,15945.5C-4401.82,16122.3 -5114.8,16204.2 -5804.83,16170.4C-6365.15,16142.9 -6907.77,16037.3 -7183.07,15851.2C-7248.11,15807.2 -7366.37,15714.3 -7395.56,15558.7C-7414.09,15460.1 -7395.61,15335.4 -7293.25,15223.1C-7291.99,15221.8 -7292.12,15221.5 -7283.91,15214.4C-7217.82,15157.2 -7138.22,15122.2 -7071.74,15099.2C-7068.91,15098.2 -7061.03,15094.1 -7038.98,15084.5C-6707.99,14940 -6141.69,14884.3 -5543.04,14884.3C-5514.65,14884.3 -5514.65,14884.3 -5497.95,14884.4ZM-5498.04,15137.9C-5520.09,15137.9 -5520.09,15137.9 -5541.62,15138.3C-6183.78,15150.3 -6694.97,15285.5 -6939.25,15421C-6940.24,15421.6 -6940.29,15421.5 -6947.01,15426.7C-6975.78,15449.3 -6995.14,15468.1 -7008.11,15482.8C-6959.49,15519.7 -6851.32,15578.9 -6637.25,15635.5C-6012.04,15800.8 -5021.66,15803.7 -4383.55,15641.9C-4167.95,15587.3 -4052.13,15528.7 -3996.35,15489C-4007.18,15477.7 -4030.2,15455.6 -4071.73,15426.4C-4073.63,15425 -4073.61,15425 -4080.31,15421.4C-4204.08,15355.6 -4396.31,15287.8 -4650.26,15237.4C-5029.13,15162.2 -5348.76,15137.9 -5498.04,15137.9Z" style="fill:rgb(69,132,255);"/>
                </g>
            </g>
        </g>
    </g>
</svg>
