<?xml version="1.0" encoding="UTF-8" standalone="no"?>
<!DOCTYPE svg PUBLIC "-//W3C//DTD SVG 1.1//EN" "http://www.w3.org/Graphics/SVG/1.1/DTD/svg11.dtd">
<svg width="100%" height="100%" viewBox="0 0 512 512" version="1.1" xmlns="http://www.w3.org/2000/svg" xmlns:xlink="http://www.w3.org/1999/xlink" xml:space="preserve" xmlns:serif="http://www.serif.com/" style="fill-rule:evenodd;clip-rule:evenodd;stroke-linejoin:round;stroke-miterlimit:2;">
    <g transform="matrix(1,0,0,1,-2882,-1595)">
        <g id="smirking-face" transform="matrix(1,0,0,1,2882.31,1595.59)">
            <rect x="0" y="0" width="512" height="512" style="fill:none;"/>
            <g transform="matrix(0.16518,0,0,0.16518,-156.951,-156.951)">
                <g transform="matrix(1.20924,0,0,1.16896,-37.5235,317.451)">
                    <circle cx="2098.45" cy="1867.09" r="819.926" style="fill:rgb(244,179,40);"/>
                </g>
                <g transform="matrix(0.709826,0,0,0.709826,2316.58,941.516)">
                    <circle cx="1082.84" cy="2231.17" r="123.845" style="fill:rgb(34,34,34);"/>
                </g>
                <g transform="matrix(0.709826,0,0,0.709826,1319.75,929.983)">
                    <circle cx="1082.84" cy="2231.17" r="123.845" style="fill:rgb(34,34,34);"/>
                </g>
                <g transform="matrix(1,0,0,1,17.4197,64.2307)">
                    <path d="M1846.88,2444.29C1813.97,2454.98 1778.56,2436.94 1767.87,2404.02C1757.18,2371.1 1775.22,2335.7 1808.14,2325.01C1920.43,2288.54 2036.44,2292.09 2154.95,2324.11C2188.36,2333.14 2208.16,2367.6 2199.13,2401.01C2190.1,2434.42 2155.64,2454.22 2122.23,2445.19C2028.14,2419.76 1936.03,2415.34 1846.88,2444.29Z" style="fill:rgb(34,34,34);"/>
                </g>
                <g transform="matrix(0.989229,0.146373,-0.146373,0.989229,1406.61,-208.632)">
                    <path d="M1846.88,2444.29C1813.97,2454.98 1778.56,2436.94 1767.87,2404.02C1757.18,2371.1 1775.22,2335.7 1808.14,2325.01C1920.43,2288.54 2036.44,2292.09 2154.95,2324.11C2188.36,2333.14 2208.16,2367.6 2199.13,2401.01C2190.1,2434.42 2155.64,2454.22 2122.23,2445.19C2028.14,2419.76 1936.03,2415.34 1846.88,2444.29Z" style="fill:rgb(34,34,34);"/>
                </g>
                <g transform="matrix(-1.25991,-0.3636,-0.3636,1.25991,6973.23,435.518)">
                    <path d="M2348.82,2088.87C2337.88,2097.66 2336.14,2113.67 2344.93,2124.61C2353.72,2135.54 2369.74,2137.28 2380.67,2128.49C2397.86,2114.67 2432.09,2086.65 2489.7,2086.65C2547.31,2086.65 2581.54,2114.67 2598.73,2128.49C2609.67,2137.28 2625.68,2135.54 2634.47,2124.61C2643.26,2113.67 2641.52,2097.66 2630.59,2088.87C2608.43,2071.05 2563.96,2035.81 2489.7,2035.81C2415.44,2035.81 2370.97,2071.05 2348.82,2088.87Z" style="fill:rgb(34,34,34);"/>
                </g>
                <g transform="matrix(1.25991,-0.3636,0.3636,1.25991,-1973.23,435.518)">
                    <path d="M2380.67,2128.49C2369.74,2137.28 2353.72,2135.54 2344.93,2124.61C2336.14,2113.67 2337.88,2097.66 2348.82,2088.87C2370.97,2071.05 2415.44,2035.81 2489.7,2035.81C2563.96,2035.81 2608.43,2071.05 2630.59,2088.87C2641.52,2097.66 2643.26,2113.67 2634.47,2124.61C2625.68,2135.54 2609.67,2137.28 2598.73,2128.49C2581.54,2114.67 2547.31,2086.65 2489.7,2086.65C2432.09,2086.65 2397.86,2114.67 2380.67,2128.49Z" style="fill:rgb(34,34,34);"/>
                </g>
                <g transform="matrix(1.21,0,0,1,-444.447,-77.7469)">
                    <path d="M2352.14,3136.37C2323.98,3130.29 2305.19,3097.7 2310.21,3063.63C2315.23,3029.56 2342.17,3006.82 2370.33,3012.9C2413.6,3022.23 2478.47,3036.61 2546.24,3032.57C2606.69,3028.96 2670.2,3010.92 2719.03,2954.88C2739.78,2931.07 2772.61,2932.12 2792.3,2957.23C2811.98,2982.34 2811.11,3022.06 2790.36,3045.88C2735.5,3108.84 2668.22,3139.96 2599.9,3152.15C2506.43,3168.83 2411.47,3149.16 2352.14,3136.37Z" style="fill:rgb(34,34,34);"/>
                </g>
            </g>
        </g>
    </g>
</svg>
