<?xml version="1.0" encoding="UTF-8" standalone="no"?>
<!DOCTYPE svg PUBLIC "-//W3C//DTD SVG 1.1//EN" "http://www.w3.org/Graphics/SVG/1.1/DTD/svg11.dtd">
<svg width="100%" height="100%" viewBox="0 0 512 512" version="1.1" xmlns="http://www.w3.org/2000/svg" xmlns:xlink="http://www.w3.org/1999/xlink" xml:space="preserve" xmlns:serif="http://www.serif.com/" style="fill-rule:evenodd;clip-rule:evenodd;stroke-linejoin:round;stroke-miterlimit:2;">
    <g transform="matrix(1,0,0,1,-598,-582)">
        <g id="winking-face" transform="matrix(1,0,0,1,598.653,582.492)">
            <rect x="0" y="0" width="512" height="512" style="fill:none;"/>
            <g transform="matrix(0.16518,0,0,0.16518,-156.951,-156.951)">
                <g transform="matrix(1.20924,0,0,1.16896,-37.5235,317.451)">
                    <circle cx="2098.45" cy="1867.09" r="819.926" style="fill:rgb(244,179,40);"/>
                </g>
                <g>
                    <g transform="matrix(-1.25991,-0.3636,-0.3636,1.25991,6957.92,514.408)">
                        <path d="M2348.82,2088.87C2337.88,2097.66 2336.14,2113.67 2344.93,2124.61C2353.72,2135.54 2369.74,2137.28 2380.67,2128.49C2397.86,2114.67 2432.09,2086.65 2489.7,2086.65C2547.31,2086.65 2581.54,2114.67 2598.73,2128.49C2609.67,2137.28 2625.68,2135.54 2634.47,2124.61C2643.26,2113.67 2641.52,2097.66 2630.59,2088.87C2608.43,2071.05 2563.96,2035.81 2489.7,2035.81C2415.44,2035.81 2370.97,2071.05 2348.82,2088.87Z" style="fill:rgb(34,34,34);"/>
                    </g>
                    <g transform="matrix(1.16621,-0.599611,0.599611,1.16621,-2277.05,1212.55)">
                        <path d="M2380.67,2128.49C2369.74,2137.28 2353.72,2135.54 2344.93,2124.61C2336.14,2113.67 2337.88,2097.66 2348.82,2088.87C2370.97,2071.05 2415.44,2035.81 2489.7,2035.81C2563.96,2035.81 2608.43,2071.05 2630.59,2088.87C2641.52,2097.66 2643.26,2113.67 2634.47,2124.61C2625.68,2135.54 2609.67,2137.28 2598.73,2128.49C2581.54,2114.67 2547.31,2086.65 2489.7,2086.65C2432.09,2086.65 2397.86,2114.67 2380.67,2128.49Z" style="fill:rgb(34,34,34);"/>
                    </g>
                </g>
                <g transform="matrix(1.21,0,0,1,-444.447,-108.377)">
                    <path d="M2352.14,3136.37C2323.98,3130.29 2305.19,3097.7 2310.21,3063.63C2315.23,3029.56 2342.17,3006.82 2370.33,3012.9C2413.6,3022.23 2478.47,3036.61 2546.24,3032.57C2606.69,3028.96 2670.2,3010.92 2719.03,2954.88C2739.78,2931.07 2772.61,2932.12 2792.3,2957.23C2811.98,2982.34 2811.11,3022.06 2790.36,3045.88C2735.5,3108.84 2668.22,3139.96 2599.9,3152.15C2506.43,3168.83 2411.47,3149.16 2352.14,3136.37Z" style="fill:rgb(34,34,34);"/>
                </g>
                <g>
                    <g transform="matrix(0.941305,0,0,0.941305,1086.16,278.864)">
                        <path d="M2213.34,2405.17C2213.34,2434.6 2189.46,2458.49 2160.03,2458.49C2130.61,2458.49 2106.72,2434.6 2106.72,2405.17C2106.72,2382.95 2106.99,2352.85 2084.58,2333.21C2068.05,2318.74 2041.28,2311.59 2000.42,2311.59C1959.91,2311.59 1933.71,2318.07 1917.83,2332.18C1895.97,2351.58 1897.84,2381.76 1897.84,2405.17C1897.84,2434.6 1873.95,2458.49 1844.52,2458.49C1815.1,2458.49 1791.21,2434.6 1791.21,2405.17C1791.21,2354.88 1800.08,2294.13 1847.04,2252.44C1877.01,2225.84 1924.01,2204.97 2000.42,2204.97C2076.46,2204.97 2124.09,2226.07 2154.84,2253.01C2203.37,2295.53 2213.34,2357.06 2213.34,2405.17Z" style="fill:rgb(34,34,34);"/>
                    </g>
                    <g transform="matrix(1.1303,0,0,1.1303,851.745,-24.9086)">
                        <circle cx="1082.84" cy="2231.17" r="123.845" style="fill:rgb(34,34,34);"/>
                        <clipPath id="_clip1">
                            <circle cx="1082.84" cy="2231.17" r="123.845"/>
                        </clipPath>
                        <g clip-path="url(#_clip1)">
                            <g transform="matrix(1.00034,-0.0551952,0.0551952,1.00034,-3052.02,-17847.4)">
                                <path d="M3222.15,20343.4L3222.15,20396.1L2806.87,20396.1L2806.87,20343.4C2953.86,20255.7 3091.89,20260.4 3222.15,20343.4Z" style="fill:rgb(244,179,40);"/>
                            </g>
                        </g>
                    </g>
                </g>
            </g>
        </g>
    </g>
</svg>
